<svg xmlns="http://www.w3.org/2000/svg" width="100mm" height="32.887mm" viewBox="0 0 283.465 93.223"><title>main_logo_b</title><g id="レイヤー_2" data-name="レイヤー 2"><g id="logo"><rect x="259.376" y="44.158" width="1.76" height="7.041"/><rect x="281.704" y="44.159" width="1.76" height="7.041"/><polygon points="256.531 44.158 254.771 44.158 253.011 47.208 251.253 44.158 249.491 44.158 249.491 51.199 251.253 51.199 251.253 47.677 253.011 50.726 254.771 47.677 254.771 51.199 256.531 51.199 256.531 44.158"/><polygon points="276.582 44.158 276.582 44.158 274.824 44.158 272.261 51.199 274.133 51.199 275.704 46.885 277.273 51.199 279.144 51.199 276.582 44.158"/><path d="M268.117,44.158H263.98V51.2h1.76v-5.28h2.2v1.036l-1.463.533,1.351,3.712H269.7l-.974-2.677a1.752,1.752,0,0,0,.974-1.567V45.743a1.584,1.584,0,0,0-1.585-1.585"/><rect x="214.433" y="44.158" width="1.76" height="7.041"/><polygon points="236.758 44.158 236.758 51.199 242.037 51.199 242.037 49.437 238.519 49.437 238.519 44.158 236.758 44.158"/><polygon points="193.864 44.158 192.106 44.158 190.346 47.208 188.586 44.158 186.824 44.158 186.824 51.199 188.586 51.199 188.586 47.677 190.346 50.726 192.106 47.677 192.106 51.199 193.864 51.199 193.864 44.158"/><polygon points="203.309 51.199 200.749 44.158 198.988 44.158 196.424 51.199 198.298 51.199 199.869 46.885 201.436 51.199 203.309 51.199"/><polygon points="231.636 44.158 231.636 44.158 229.876 44.158 227.315 51.199 229.187 51.199 230.756 46.885 232.327 51.199 234.198 51.199 231.636 44.158"/><path d="M211.589,44.158h-4.131a1.588,1.588,0,0,0-1.588,1.588V51.2h5.72V46.8h-2.86v1.76h1.1v.88h-2.2V45.919h3.959Z"/><path d="M220.8,49.439V45.92h3.959V44.16h-4.131a1.587,1.587,0,0,0-1.587,1.588V51.2h5.718v-1.76Z"/><rect x="149.415" y="44.158" width="1.76" height="7.041"/><polygon points="146.57 44.158 144.81 44.158 143.05 47.207 141.292 44.158 139.53 44.158 139.53 51.199 141.292 51.199 141.292 47.677 143.05 50.726 144.81 47.677 144.81 51.199 146.57 51.199 146.57 44.158"/><path d="M165.012,51.2h2.543a1.589,1.589,0,0,0,1.588-1.588V44.159h-1.76v5.28h-2.2v-5.28h-1.76v5.452a1.588,1.588,0,0,0,1.588,1.588"/><rect x="154.019" y="44.158" width="1.76" height="7.041"/><polygon points="160.579 44.159 158.548 44.159 156.516 47.677 158.548 51.199 160.579 51.199 158.548 47.677 160.579 44.159"/><polygon points="98.253 44.159 92.533 44.159 92.533 45.919 94.513 45.919 94.513 51.199 96.273 51.199 96.273 45.919 98.253 45.919 98.253 44.159"/><polygon points="88.253 44.159 88.253 44.159 86.495 44.159 83.932 51.199 85.804 51.199 87.375 46.886 88.944 51.199 90.815 51.199 88.253 44.159"/><path d="M110.679,51.2h2.545a1.588,1.588,0,0,0,1.587-1.588V44.158h-1.758v5.28h-2.2v-5.28h-1.758V49.61a1.588,1.588,0,0,0,1.587,1.588"/><polygon points="122.195 44.158 122.195 48.128 119.415 44.158 117.654 44.158 117.654 51.199 119.415 51.199 119.415 47.225 122.195 51.199 123.953 51.199 123.953 44.158 122.195 44.158"/><polygon points="79.612 44.159 79.612 46.797 77.413 46.797 77.413 44.159 75.653 44.159 75.653 51.199 77.413 51.199 77.413 48.557 79.612 48.557 79.612 51.199 81.372 51.199 81.372 44.159 79.612 44.159"/><polygon points="132.076 44.158 126.798 44.158 126.798 51.199 132.076 51.199 132.076 49.437 128.558 49.437 128.558 48.557 132.076 48.557 132.076 46.797 128.558 46.797 128.558 45.918 132.076 45.918 132.076 44.158"/><path d="M106.093,45.919v-1.76h-3.7a1.582,1.582,0,0,0-1.583,1.583v.721a1.585,1.585,0,0,0,1.045,1.491l2.915,1.061v.423h-3.519V51.2h3.7a1.582,1.582,0,0,0,1.583-1.583V48.9a1.588,1.588,0,0,0-1.047-1.493l-2.913-1.062v-.421Z"/><rect x="177.003" y="46.698" width="1.961" height="1.961" transform="translate(18.371 139.739) rotate(-44.972)"/><path d="M89.019,6.4H0l24.35,24.35A4.272,4.272,0,0,0,27.369,32H70.337v8.533L93.545,17.324A6.4,6.4,0,0,0,89.019,6.4"/><path d="M56.56,40.532H34.133L58.268,64.667l12.1-12.1L59.506,41.712A4.267,4.267,0,0,0,56.56,40.532Z"/><path d="M171.519,6.4H160.943a5.311,5.311,0,0,0-10.414,0H144.5V17.065h4.138L144.5,40.532h7.25a4.267,4.267,0,0,0,4.2-3.526l3.517-19.941h9.921V36.106a4.371,4.371,0,0,0,3.42,4.344,4.271,4.271,0,0,0,5.112-4.186V12.8a6.4,6.4,0,0,0-6.4-6.4"/><path d="M182.9,6.4V35.2a5.333,5.333,0,0,0,10.665,0V6.4Z"/><path d="M204.23,19.2V10.664A4.267,4.267,0,0,0,199.963,6.4H195.7v27.72a6.4,6.4,0,0,0,10.926,4.526L226.067,19.2Z"/><polygon points="129.565 6.398 123.165 6.398 123.165 17.065 133.831 17.065 133.831 10.666 129.565 10.666 129.565 6.398"/><polygon points="140.231 0 129.566 0 129.566 6.398 133.831 6.398 133.831 10.665 140.231 10.665 140.231 0"/><path d="M121.031,11.733A5.335,5.335,0,0,0,115.7,6.4h-16V17.067h16a5.335,5.335,0,0,0,5.334-5.334"/><path d="M121.031,24.531A5.335,5.335,0,0,0,115.7,19.2h-16V29.865h16a5.334,5.334,0,0,0,5.334-5.334"/><path d="M123.165,19.2V32h-21.7a4.267,4.267,0,0,0-3.017,1.25l-7.284,7.284h36.265a6.4,6.4,0,0,0,6.4-6.4V19.2Z"/><path d="M145.043,54.825H114.81v12.8h30.233a6.4,6.4,0,0,0,0-12.8"/><path d="M114.81,69.757V80.424h22.216v12.8l12.541-12.541a6.4,6.4,0,0,0-4.526-10.926Z"/><path d="M190.506,54.825H174.171a4.267,4.267,0,0,0-3.017,1.25L154.078,73.15v18.1L168.027,77.3V86.77a4.411,4.411,0,0,0,3.886,4.467,4.269,4.269,0,0,0,4.645-4.252V68.773Z"/><path d="M106.276,91.251a4.267,4.267,0,0,0,4.248-4.682,4.389,4.389,0,0,0-4.429-3.849H77.947l8.532,8.532Z"/><path d="M110.543,61.224a6.4,6.4,0,0,0-6.4-6.4H75.653l-12.8,12.8h41.29A6.4,6.4,0,0,0,110.543,61.224Z"/><path d="M110.543,75.091a5.334,5.334,0,0,0-5.334-5.334H75.653V80.424H105.21A5.334,5.334,0,0,0,110.543,75.091Z"/><path d="M198.308,56.076l-11.551,11.55h14.222v3.282H186.757V91.256h19.751a4.372,4.372,0,0,0,4.345-3.42,4.27,4.27,0,0,0-4.184-5.114h-9.956V79.441h14.222V54.827h-9.609A4.266,4.266,0,0,0,198.308,56.076Z"/><path d="M215.2,91.254h22.4a4.267,4.267,0,0,0,4.267-4.267V54.827H215.2Zm8.532-23.627h9.6V81.3a1.422,1.422,0,0,1-1.422,1.422h-6.755a1.422,1.422,0,0,1-1.422-1.422Z"/><path d="M246.133,88.054a3.2,3.2,0,1,0,6.4,0V54.827h-6.4Z"/><path d="M256.8,54.759V71.827l6.4,6.4h11.734v3.006a1.422,1.422,0,0,1-1.422,1.422H261.064a4.266,4.266,0,0,0-4.266,4.266h0a4.266,4.266,0,0,0,4.266,4.266H279.2a4.267,4.267,0,0,0,4.267-4.267V54.759Zm18.134,14.934h-9.6V67.56h9.6Z"/></g></g></svg>